Simulation
nRows=47
nColumns=15
endheader
time  TH_x TH_y TH_z SC_y  SC_z  SC_x  AC_y  AC_z  AC_x  GH_y  GH_z  GH_yy  EL_x  PS_y
2.8725  0.000000  0.000000  0.000000  -38.584314908886654  -2.0182175664896063  -11.276676446958522  45.544101971424126  13.399893209729651  5.942662034748556  7.276287097546862  9.309092084104565  -0.47164677089243306  14.034223448452368  120.000000
2.92995  0.000000  0.000000  0.000000  -38.47336246043397  -2.113158272179879  -10.698978699762915  46.13752570347758  13.34479575768235  5.832346614572008  9.28963476534956  7.895224352664582  -0.015062922825371427  14.399737033192931  120.000000
2.9874  0.000000  0.000000  0.000000  -38.45742704036919  -2.1414927328614044  -10.08018846788864  46.71739018417209  13.242200381403066  5.728721054672789  12.406040293271424  6.730790996642729  -1.1097995008145054  14.851156692335413  120.000000
3.0448500000000003  0.000000  0.000000  0.000000  -38.51406154663098  -2.1052732965355876  -9.446563784113591  47.2392790276671  13.094726081899578  5.623814294836307  16.658910291472953  5.792157988057374  -3.8087583933372815  15.342307870445598  120.000000
3.1023  0.000000  0.000000  0.000000  -38.615612475213695  -2.009311954708632  -8.819673083782657  47.67988672173386  12.913253485324017  5.515873621325038  21.784333311533825  5.0647788805498095  -7.81691742105887  15.829856261320023  120.000000
3.15975  0.000000  0.000000  0.000000  -38.73556652301137  -1.8625527827045703  -8.21989378085123  48.036351015590405  12.714975093256898  5.4092900440613825  27.222350589645682  4.532528973421132  -12.509807442367464  16.28398410118594  120.000000
3.2172  0.000000  0.000000  0.000000  -38.85158259895054  -1.682188343212613  -7.667661709514431  48.319333351940834  12.517885790969927  5.313928101457478  32.24192092762556  4.169166995647628  -17.07286925453221  16.694709075637178  120.000000
3.2746500000000003  0.000000  0.000000  0.000000  -38.94461121358789  -1.4908872379655655  -7.179341240422422  48.545352205007944  12.333557670389265  5.239476617785884  36.19920922928798  3.938570347326594  -20.772299156735883  17.069430068913263  120.000000
3.3321  0.000000  0.000000  0.000000  -38.99985140926987  -1.30927608413039  -6.767031606300754  48.73079492641636  12.166936139403225  5.192222675527187  38.76917584912117  3.8039136936551188  -23.198201346028256  17.423882404299196  120.000000
3.38955  0.000000  0.000000  0.000000  -39.008951589838006  -1.1511122376971576  -6.437964299033254  48.88861215748322  12.019633081854945  5.17432163484538  40.00466910659395  3.7377198529772606  -24.333928594467373  17.77287219202639  120.000000
3.447  0.000000  0.000000  0.000000  -38.97212391852458  -1.0239442145035689  -6.194173636849713  49.0272068267965  11.892455209283593  5.185490597534509  40.234398067826994  3.725632507872575  -24.461203513095164  18.12541038023527  120.000000
3.5044500000000003  0.000000  0.000000  0.000000  -38.898050245976535  -0.9315671356210442  -6.034100818020501  49.1503902404793  11.784807846284735  5.225943779272377  39.91037910330996  3.7621259934098785  -24.007188339890945  18.485226778551624  120.000000
3.5619  0.000000  0.000000  0.000000  -38.80057097493249  -0.873300627556654  -5.955245829759627  49.25818841793657  11.694999665577797  5.296574683706994  39.43015249181715  3.844940306572763  -23.362188276184273  18.851859320067543  120.000000
3.61935  0.000000  0.000000  0.000000  -38.69409879500169  -0.8418060778825405  -5.95629382008261  49.34862928550829  11.623319812987576  5.3956381668894995  39.00959153294981  3.972861481811916  -22.745210360152164  19.223004210797594  120.000000
3.6768  0.000000  0.000000  0.000000  -38.58930629796668  -0.8258255760769151  -6.037358521020737  49.417447355058876  11.571222885105387  5.520763677365118  38.68764308474931  4.144274611670842  -22.202408277676415  19.59632048410758  120.000000
3.7342500000000003  0.000000  0.000000  0.000000  -38.49002159910782  -0.815583134542624  -6.19919739587014  49.45826693463749  11.538332360359494  5.672990168749574  38.399608840061646  4.356780067299808  -21.67620487268169  19.97049357892527  120.000000
3.7917  0.000000  0.000000  0.000000  -38.39261048351753  -0.8043378917447763  -6.4430907126291785  49.466114923079054  11.52158461698471  5.856890412060378  38.042746679553545  4.609448186285647  -21.069409187130432  20.345861251645832  120.000000
3.84915  0.000000  0.000000  0.000000  -38.287549924954334  -0.7878961923202179  -6.770407384280487  49.43913675114132  11.515959045923726  6.0795410744283584  37.48653904623346  4.904705757550887  -20.254490530090756  20.723200788372722  120.000000
3.9066  0.000000  0.000000  0.000000  -38.16299640203451  -0.7638339336506299  -7.182010136236542  49.378019796863  11.515776184816332  6.349494805778991  36.55989671766959  5.2497590905939795  -19.060560707478064  21.102117395018915  120.000000
3.9640500000000003  0.000000  0.000000  0.000000  -38.00626749913736  -0.7298799374970419  -7.678775285213146  49.287623312925895  11.515592708624876  6.674748827358292  35.078631563497595  5.658865252583257  -17.301360981376547  21.48021439822356  120.000000
4.0215  0.000000  0.000000  0.000000  -37.80575923083726  -0.6843369284853345  -8.262109841402989  49.17786425257987  11.510313784105168  7.061911030325414  32.917935688438725  6.157030435667963  -14.851904376537483  21.85315540142459  120.000000
4.07895  0.000000  0.000000  0.000000  -37.553511554140016  -0.6273623485192176  -8.933396793698169  49.062400287791185  11.494720400614675  7.5171661778440635  30.09602170178185  6.782979807558961  -11.738619972636712  22.213943385548184  120.000000
4.1364  0.000000  0.000000  0.000000  -37.250627060993914  -0.5634412767559193  -9.692981090665011  48.95656472761199  11.462804417721744  8.047466052105657  26.828849002426487  7.589630136173347  -8.202329947292249  22.55090448060568  120.000000
4.19385  0.000000  0.000000  0.000000  -36.90920337378254  -0.4998981538687429  -10.53951230872451  48.87831041758409  11.407526522925554  8.65929926846339  23.498137953368516  8.637775208367751  -4.669721652181033  22.84660248964378  120.000000
4.2513000000000005  0.000000  0.000000  0.000000  -36.55131016012376  -0.4471831151638272  -11.466531781397695  48.84717804031614  11.322530970346973  9.358820764204479  20.512684958225258  9.985540100783087  -1.611779221469196  23.080538538654398  120.000000
4.30875  0.000000  0.000000  0.000000  -36.20248721781475  -0.4197058662764476  -12.457122092387765  48.88322309519456  11.206150222073038  10.1508928673055  18.149494371739774  11.680731628442189  0.6245917536743987  23.236359755630115  120.000000
4.3662  0.000000  0.000000  0.000000  -35.88242727650097  -0.42884792068522015  -13.482250527317015  49.01090301021121  11.067673358660839  11.030807237638664  16.478219336683686  13.761260487423609  1.905084267787551  23.314741988644275  120.000000
4.42365  0.000000  0.000000  0.000000  -35.60465125719595  -0.47478839785637933  -14.501164141087312  49.259610499113194  10.930907570383988  11.978750430316653  15.40250768654052  16.261313861451693  2.2790972069887574  23.343903576132615  120.000000
4.4811  0.000000  0.000000  0.000000  -35.38235098991812  -0.5480759609358301  -15.462468564419824  49.649797865163045  10.828325306901993  12.96599044366182  14.738684360718002  19.209910208927564  1.9138351189538252  23.37539577337391  120.000000
4.53855  0.000000  0.000000  0.000000  -35.23728397356928  -0.6323431182384479  -16.310409978296875  50.181521981752965  10.789632291902217  13.958708130322592  14.296633879604771  22.621994053296188  1.022205015808446  23.465178983831297  120.000000
4.596  0.000000  0.000000  0.000000  -35.19866865983693  -0.7028907259509424  -16.996018767344655  50.842596150010046  10.831810745072401  14.916021723701608  13.947970476886315  26.486804880443554  -0.20287751851547178  23.648776175015865  120.000000
4.65345  0.000000  0.000000  0.000000  -35.294515993271006  -0.734601573524493  -17.4809782838788  51.60775933691697  10.951341043890995  15.80011346530488  13.63754335508003  30.751152663829373  -1.605410230109359  23.920001808006973  120.000000
4.7109000000000005  0.000000  0.000000  0.000000  -35.53409344288264  -0.7030691397902666  -17.734543786492747  52.440090890100024  11.12810321822807  16.58315124598755  13.365097382455215  35.31010573279584  -3.0672824999633224  24.229407546982486  120.000000
4.76835  0.000000  0.000000  0.000000  -35.897662554519215  -0.5826562280951615  -17.73013010476988  53.29761038565625  11.340963680173985  17.242440086380157  13.150933637658552  40.014179209414266  -4.508776147566447  24.50155256520482  120.000000
4.8258  0.000000  0.000000  0.000000  -36.34072994064938  -0.35304206527743626  -17.444598606630883  54.136867518671934  11.578416095840007  17.757913537987303  13.008963627450507  44.687081765874034  -5.891599358336329  24.660514665760942  120.000000
4.88325  0.000000  0.000000  0.000000  -36.81376730177402  0.0013638018236713416  -16.858664055568806  54.926357415361984  11.84130330101897  18.11347701082327  12.949132662960396  49.163850843506445  -7.234501602121454  24.654724422716946  120.000000
4.9407  0.000000  0.000000  0.000000  -37.28813524129087  0.49144620569785025  -15.956394548403885  55.65045483602224  12.138132389161612  18.301044518099523  12.974236643823227  53.328959565688756  -8.60180829576385  24.464472478339573  120.000000
4.99815  0.000000  0.000000  0.000000  -37.76391014542292  1.111373597378499  -14.731681392288754  56.301500065018644  12.472101335307716  18.325075900167835  13.071452161496289  57.1239465974173  -10.06701593238084  24.09361277416  120.000000
5.0556  0.000000  0.000000  0.000000  -38.259874261055124  1.8378796484620836  -13.198605061939386  56.877804242238895  12.833510301244079  18.20065532432869  13.217517543868317  60.53662296031586  -11.681654217668441  23.56178589149668  120.000000
5.11305  0.000000  0.000000  0.000000  -38.80136394286131  2.635926863101269  -11.394768474799315  57.37905271446508  13.200173867438334  17.951766924450546  13.387684109794913  63.585545185712036  -13.455727675684626  22.904612966242667  120.000000
5.1705000000000005  0.000000  0.000000  0.000000  -39.40593374919599  3.4614559793007733  -9.380743714603478  57.80334635841064  13.541897440867306  17.607881267565144  13.561092169430932  66.30218205834923  -15.356093186333846  22.172590465861067  120.000000
5.22795  0.000000  0.000000  0.000000  -40.073394130549545  4.265682336803239  -7.237934749931554  58.14984156143847  13.826231394656732  17.19857691041513  13.721976499393872  68.71544542003353  -17.319293265439487  21.42517997463979  120.000000
5.2854  0.000000  0.000000  0.000000  -40.782311090596295  5.000120704176162  -5.064874617993433  58.42150625498834  14.023860465854796  16.7498307353648  13.858669975407441  70.84104083724087  -19.26887612243262  20.719137609744855  120.000000
5.34285  0.000000  0.000000  0.000000  -41.49018144591071  5.623050007644874  -2.972278519047451  58.62561177746321  14.113063524359106  16.282122007867333  13.962697472011811  72.67532719451107  -21.126815021239114  20.095301030765675  120.000000
5.4003  0.000000  0.000000  0.000000  -42.139874129674276  6.104343994357288  -1.0760658574400113  58.771449389291014  14.081860321267948  15.811177520940825  14.029557771797935  74.19367210597703  -22.81912766033375  19.571657772067965  120.000000
5.45775  0.000000  0.000000  0.000000  -42.669162669726546  6.4265233365176755  0.5111353767031914  58.86749617447007  13.928103455121505  15.349429955179733  14.058525175045737  75.35421541155489  -24.28010669598023  19.147556951549856  120.000000
5.5152  0.000000  0.000000  0.000000  -43.021085614922825  6.580941928441521  1.6894172225729143  58.91972139729876  13.658012329661995  14.908311165182132  14.051416413201965  76.10499232839327  -25.45797788779467  18.816119640251088  120.000000
